<svg width="1787" height="1596" viewBox="0 0 1787 1596" fill="none" xmlns="http://www.w3.org/2000/svg">
<path fill-rule="evenodd" clip-rule="evenodd" d="M563.053 1444.57L496.981 1339.28L459.743 1362.64L499.452 1425.93L563.053 1444.57ZM1771.88 137.125C1768.59 151.484 1759.91 164.605 1746.57 173.173C1749.69 179.027 1752.71 184.893 1755.65 190.759C1786.27 170.496 1795.45 129.595 1776.29 98.1619C1760.56 72.3326 1730.36 60.5874 1702.33 67.1666C1702.33 67.1666 1702.33 67.1666 1702.34 67.1666C1710.89 65.2654 1719.67 65.3403 1728.02 67.2542C1742.58 70.5813 1755.87 79.4622 1764.42 93.1085C1772.99 106.755 1775.2 122.578 1771.88 137.125ZM1540.44 683.242C1472.07 658.839 1400.92 609.119 1337.89 539.574C1403.09 498.66 1424.38 433.755 1394.76 366.811C1396.98 374.316 1398.55 382.059 1399.37 389.951C1404.5 438.808 1381.85 493.419 1318.63 533.082L1300.84 544.239C1368.01 618.35 1443.84 671.334 1516.69 697.339C1589.27 723.243 1658.69 722.167 1712.99 688.083C1731.62 676.4 1747.52 661.428 1760.72 643.704C1750.22 655.687 1738.2 666.043 1724.65 674.549C1673.69 706.532 1608.55 707.545 1540.44 683.242ZM1674.88 462.962C1692.97 449.828 1705.42 431.904 1711.1 412.966C1717.24 392.491 1715.41 370.789 1704.14 352.827L1504.34 34.4203C1493.07 16.4586 1474.33 5.37646 1453.21 1.99927C1433.68 -1.12769 1412.14 2.28699 1392.44 12.8689C1390.32 14.4075 1388.26 16.0209 1386.3 17.697C1397.91 18.2473 1409.18 20.6113 1419.6 24.7264C1437.35 31.7185 1452.64 43.7139 1463.08 60.3121L1662.88 378.732C1673.3 395.33 1677.44 414.317 1676.01 433.355C1675.18 444.524 1672.41 455.707 1667.86 466.389C1670.22 465.35 1672.56 464.2 1674.88 462.962ZM1234.78 585.704C1301.95 659.802 1377.77 712.799 1450.62 738.791C1520.15 763.619 1586.78 763.657 1640 733.662C1599.25 738.365 1555.1 732.049 1510.01 715.963C1433.39 688.608 1353.85 632.822 1283.87 554.896L1234.78 585.704ZM247.199 1470.36L323.352 1591.72L340.466 1595.85L263.907 1473.84L214.13 1394.52L197.321 1390.88L247.199 1470.36ZM218.119 1375.17L388.733 1268.11L448.785 1230.44L622.579 1121.38L682.631 1083.69L832.403 989.704L813.478 987.628L681.743 1070.28L372.025 1264.63L338.361 1285.76L201.574 1371.59L218.119 1375.17ZM796.905 1297.83L730.837 1192.54L693.588 1215.9L733.301 1279.18L796.905 1297.83ZM209.694 1205.56C223.631 1196.81 230.134 1178.34 229.377 1155.55C229.367 1155.22 229.355 1154.9 229.341 1154.57L164.528 1195.25C165.004 1199.4 165.293 1203.49 165.391 1207.48C165.631 1217.28 164.738 1226.56 162.705 1235.05L209.694 1205.56ZM628.433 1003.94L301.816 1208.9L305.9 1215.4L632.51 1010.44L628.433 1003.94ZM697.315 818.905L269.75 1087.2C279.765 1112.06 285.071 1136.66 285.618 1158.86C285.973 1173.3 284.329 1186.77 280.677 1198.78L683.606 945.938C702.293 934.205 711.199 910.014 710.461 880.395C709.998 861.42 705.608 840.369 697.315 818.905ZM725.446 843.271C728.273 855.579 729.849 867.574 730.199 878.944L1308.1 516.309C1345.25 492.994 1366.61 464.3 1375.47 435.368L725.446 843.271ZM145.629 1208.01C145.019 1183.22 135.884 1153.92 118.368 1126.02C100.851 1098.1 78.4492 1077.14 56.3948 1065.8C52.9263 1064.01 49.4766 1062.49 46.0694 1061.2C36.9385 1060.59 28.5605 1062.35 21.5159 1066.77C7.21285 1075.75 0.409678 1094.45 0.973795 1117.41C1.58544 1142.2 10.7189 1171.48 28.2365 1199.4C45.7529 1227.32 68.1537 1248.28 90.2093 1259.62C93.6778 1261.39 97.1276 1262.93 100.535 1264.22C109.664 1264.83 118.042 1263.07 125.088 1258.65C139.391 1249.67 146.193 1230.97 145.629 1208.01ZM276.452 1224.81L303.014 1267.13L315.073 1267.27L285.041 1219.42L276.452 1224.81Z" fill="#55D4FC"/>
</svg>
